<svg xmlns="http://www.w3.org/2000/svg" width="50.021" height="68.604" viewBox="0 0 50.021 68.604">
  <g id="Camada_2" data-name="Camada 2" transform="translate(-0.501 -0.494)">
    <g id="Camada_3" data-name="Camada 3" transform="translate(0.501 0.494)">
      <path id="Caminho_1" data-name="Caminho 1" d="M25.826,44.812V39.74l-6.5,6.582V74.341h7.358V54.2a.069.069,0,0,1,.078-.069H38.679V44.881H25.895a.078.078,0,0,1-.069-.069Z" transform="translate(-3.087 -5.884)" fill="#fff"/>
      <path id="Caminho_2" data-name="Caminho 2" d="M16.249,45.693H16.1a7.479,7.479,0,0,1-4.883-3.709A13.138,13.138,0,0,1,9.495,34.34H.722C.178,42.285,3.9,49.575,9.814,52.163Z" transform="translate(-0.524 -5.143)" fill="#fff"/>
      <path id="Caminho_3" data-name="Caminho 3" d="M45.571,19.75l-7.031,7.031h0L37.1,28.126H52.188l3.226-3.218V23.019L52.153,19.75Z" transform="translate(-5.527 -3.139)" fill="#fff"/>
      <path id="Caminho_4" data-name="Caminho 4" d="M27.19,33.736l.293-.276v-.043a.078.078,0,0,1,.069-.078h0l.716-.681,7.126-7.117V.67h-8.2Z" transform="translate(-4.166 -0.518)" fill="#fff"/>
      <path id="Caminho_5" data-name="Caminho 5" d="M38.723,44.7h-12.8V39.578a.069.069,0,0,0-.052-.069.086.086,0,0,0-.078,0l-6.642,6.72a.069.069,0,0,0,0,.052V74.386a.078.078,0,0,0,.069.069h7.565a.078.078,0,0,0,.069-.069V54.234h11.87a.069.069,0,0,0,.078-.069V44.779A.078.078,0,0,0,38.723,44.7ZM38.654,54.1H26.784a.069.069,0,0,0-.078.069V74.308H19.3V46.289l6.5-6.582v5.072a.078.078,0,0,0,.069.069H38.654Z" transform="translate(-3.061 -5.851)" fill="#fff"/>
      <path id="Caminho_6" data-name="Caminho 6" d="M50.842,16.985a.06.06,0,0,0-.052,0H44.148a.06.06,0,0,0-.052,0l-7.048,7.048-1.51,1.415V.568A.069.069,0,0,0,35.47.5H27.093A.069.069,0,0,0,27,.568V33.893a.069.069,0,0,0,0,.069h.052l.336-.319h.043a.078.078,0,0,0,.078-.069v-.06l.776-.751h0l7.143-7.134H50.886l3.269-3.269a.121.121,0,0,0,0-.052V20.349a.069.069,0,0,0,0-.052ZM35.4,25.542l-7.126,7.117-.716.681h0a.078.078,0,0,0-.069.078v.043l-.293.276V.646h8.238Zm18.625-3.278-3.218,3.218h-15.1l1.441-1.346h0l7.031-7.031h6.582l3.261,3.269Z" transform="translate(-4.139 -0.494)" fill="#fff"/>
      <path id="Caminho_7" data-name="Caminho 7" d="M16.39,45.544h-.285a7.281,7.281,0,0,1-4.779-3.632,13.061,13.061,0,0,1-1.665-7.7.069.069,0,0,0-.138,0H.707a.06.06,0,0,0-.06-.052.069.069,0,0,0-.078.052v.052a.112.112,0,0,0,0,.052,21,21,0,0,0,2.157,11.1,14.665,14.665,0,0,0,7.048,6.85h.052l6.634-6.591a.06.06,0,0,0,0-.052.069.069,0,0,0-.069-.078ZM.7,34.3H9.506a13.138,13.138,0,0,0,1.725,7.643,7.479,7.479,0,0,0,4.883,3.709h.147l-6.47,6.487C3.882,49.547.155,42.258.7,34.3Z" transform="translate(-0.501 -5.115)" fill="#fff"/>
    </g>
  </g>
</svg>
